<svg height="220" viewBox="0 0 165 165" width="220" xmlns="http://www.w3.org/2000/svg" xmlns:xlink="http://www.w3.org/1999/xlink"><radialGradient id="a" cx="106.3128304" cy="106.0883168" gradientUnits="userSpaceOnUse" r="134.5983483"><stop offset="0" stop-color="#1b3f7c"/><stop offset="1" stop-color="#2b62c0" stop-opacity="0"/></radialGradient><linearGradient id="b" gradientUnits="userSpaceOnUse" x1="95.2718884" x2="220.65849" y1="82.5203216" y2="229.2987924"><stop offset="0" stop-color="#265ab1"/><stop offset="1" stop-color="#5cb6e8"/></linearGradient><path d="m110 1.3672c-60.007 0-108.63 48.626-108.63 108.63 0 60.007 48.626 108.63 108.63 108.63 60.007 0 108.63-48.628 108.63-108.63 0-60.007-48.626-108.63-108.63-108.63zm0 78.135c16.836 0 30.498 13.662 30.498 30.498s-13.662 30.494-30.498 30.494-30.498-13.658-30.498-30.494 13.662-30.498 30.498-30.498z" fill="url(#b)" transform="scale(.75)"/><path d="m110 1.3672c-60.007-.0000001-108.63 48.626-108.63 108.63 0 13.657 2.5248 26.721 7.123 38.76 11.335 3.9928 23.349 6.5664 36.049 6.5664 20.797 0 40.086-6.043 56.631-16.137-12.533-3.7888-21.668-15.425-21.668-29.189 0-16.836 13.663-30.498 30.498-30.498 13.458 0 24.881 8.7337 28.926 20.836 9.2858-16.046 14.93-34.453 14.93-54.326 0-13.536-2.7574-26.362-7.2598-38.322-11.435-4.0894-23.753-6.3223-36.596-6.3223z" fill="url(#a)" stroke-width="3.4375" transform="scale(.75)"/><path d="m82.5 45.983c-20.169 0-36.517 16.347-36.517 36.517 0 20.166 16.347 36.517 36.517 36.517 20.169 0 36.517-16.349 36.517-36.517 0-20.169-16.347-36.517-36.517-36.517zm0 17.138c10.701 0 19.378 8.6768 19.378 19.378s-8.6768 19.378-19.378 19.378-19.378-8.6768-19.378-19.378 8.6768-19.378 19.378-19.378z" fill="#fefefe" opacity=".2" stroke="#e6e6e6" stroke-width="3.586"/><g stroke-width="2.5781"><path d="m107.22 46.211c3.3975 3.1051 5.6293 5.0444 6.8885 6.4353l-.16616.0052c-2.1064-2.2878-4.4761-4.3011-6.7222-6.4402z" opacity=".3"/><path d="m128.93 72.335c-.31301.06262-.4887.37259-.77544.49851.0429-.07685.001-.09877.0755-.16113z" opacity=".3"/><path d="m120.77 64.559c-.33578-.06783-.80964-.03163-1.1934.16616-.38373.19779-.63012.4983-.77545.75029l-.0152.02011-.0101.02527c-.47046.88048-.41503 1.5842-.31724 2.3868.0978.80254.33054 1.6489.89631 2.4271.60565.83379 1.3665 1.3458 2.0494 1.8228.42408.2962.55667.36839.79056.51361l.1561.80566 1.0222.21148c.2847.05857.52813.10632.85099.1007.32285-.0054.88491-.07229 1.3495-.57907s.46726-1.0967.44815-1.3495c-.0188-.25276-.0516-.3515-.0604-.40283l-.0655-.40283-.2568-.31724c-.53636-.66542-1.3284-2.0172-2.0595-3.2175-.36555-.60019-.72288-1.1671-1.0927-1.6567-.18491-.24479-.36674-.46857-.60426-.68986-.23753-.22128-.51246-.49304-1.1128-.61432z" opacity=".3"/><path d="m107.19 46.19c3.4054 3.1105 5.6458 5.0557 6.9086 6.4505l-.17121.01006c-2.1126-2.2943-4.4841-4.3155-6.7374-6.4605z" opacity=".3"/></g><path d="m64.67 13.076c-2.5551-.034558-3.0788 3.1629-.86523 3.9785 12.463 5.066 24.071 10.975 35.213 17.355l-2.6172 6.1699c-1.3277 3.1303-1.2655 5.6128-1.0078 7.6602-4.8175-2.28-26.032-11.772-63.23-11.98-.15466-.01425-.85486-.2578-1.3242-.44141-2.0683 2.2055-4.0984 4.4493-6.0332 6.7715-5.7552 7.2643-10.597 15.283-14.361 23.883l3-1.8164c6.9048-4.1804 15.098-7.0801 24.941-7.8496h.013672c29.227-2.4116 64.932 13.39 100.06 29.734-.0265 4.0465.34123 8.1508 3.3164 11.869 2.031 2.5386 5.6236 4.2559 9.2793 5.9824 3.6556 1.7264 7.4216 3.2952 8.8887 4.1367v-.00782c3.3741 1.9367 14.673 9.1929 21.311 17.832l1.9668 2.5644 1.5234-2.8535c.007-.0133 1.0196-1.1885 2.3516-2.3027 1.3319-1.1142 3.0217-2.3844 4.6719-3.5723 3.3007-2.3758 6.4316-4.418 6.4316-4.418l6.1172-3.9805-7.2988.14843s-.45283.0272-1.9609-.26172c-1.5082-.28907-3.9125-.89559-7.3379-2.1758-3.1297-1.1695-6.8983-3.7177-9.8027-6.0234-1.4522-1.1528-2.702-2.2446-3.584-3.0606-.0903-.0835-.12658-.12367-.20898-.20117.81167-.88087 1.0532-2.1373.87304-2.9473-.19654-.8838-.57212-1.5862-.99414-2.2695-.84403-1.3666-1.9086-2.5733-2.6523-3.3164.13107.13117-.20329-.25054-.5293-.72656-.32602-.47589-.74874-1.1201-1.2226-1.8652-.94779-1.4903-2.1108-3.3889-3.2422-5.2578-2.2626-3.7375-4.294-7.1976-4.498-7.5391v-.007813c.005.01013-.51631-1.0606-1.4902-1.7109l-.24805-.16797-.27539-.087891c-.11-.03529-.19736.007599-.30273-.019531l1.7246-.11523-2.5918-3.1406s-32.098-38.897-93.289-57.854c-.0045-.0015-.007099-.006312-.011719-.007812-.058749-.018191-.10743-.042266-.16602-.060547v.003906c-.18819-.032704-.36677-.048477-.53711-.050781zm34.584 21.475c5.5898 3.2091 11.065 6.5314 16.281 10.117l-1.418 3.5527c-1.2667 3.1857-1.1816 5.711-.95313 7.834-3.9678-1.6479-11.104-5.3074-12.789-15.02l-1.1211-6.4844zm-69.094 5.377c.46755.2035.68895.3985 1.625.48438l.085938.013672h.09375c40.984.18664 65.387 12.951 65.387 12.951l2.6113-2.9824c5.7177 8.4659 15.529 11.381 15.529 11.381l5.1836 1.4492-2.8477-4.5645s-.42858-.63188-.69726-2.168c-.0531-.30342.1951-.97045.16797-1.3301 4.1243 7.5501 8.9178 12.433 14.414 14.758l4.6191 1.9531-1.873-4.6523c-.26312-.65381-.046-.89911-.16796-1.4297 5.737 8.9091 14.059 13.252 14.059 13.252l.61133.30273.67773-.12109s1.9845-.35771 4.1758-.63867c1.0956-.14048 2.2397-.26038 3.1699-.30859.70545-.03667 1.0098.007702 1.2012.013672.003.03208-.06241-.10246.08789.14844-.004-.0069 2.239 3.7949 4.5176 7.5586 1.14 1.8831 2.3132 3.7945 3.291 5.332.48889.76876.93148 1.4442 1.3027 1.9863s.57006.87834 1.0137 1.3223c.50724.50687 1.4838 1.6373 2.0527 2.5586.18104.29315.22331.43585.30274.625-.41887.26982-.98079.30589-1.2422.79883-.58411 1.1015-.2335 2.1617-.04688 2.5977l.00782.00781c.32317.75204.36193.5879.47656.71875.11467.13086.23464.26463.38281.41602.29627.30273.68729.67645 1.168 1.1211.96136.88926 2.2771 2.0445 3.8203 3.2695 3.0864 2.4501 7.02 5.1972 10.936 6.6602 2.5308.94586 4.0014 1.2579 5.6074 1.6582-1.0745.73338-1.2276.7941-2.5312 1.7324-1.6987 1.2227-3.4522 2.5353-4.916 3.7598-.67123.56155-1.0089 1.1174-1.5371 1.625-7.3008-8.5965-17.367-15.272-20.854-17.273v-.00976c-2.0886-1.1982-5.6636-2.6208-9.1836-4.2832s-6.9379-3.7312-7.8027-4.8125c-2.4649-3.081-2.6193-6.2721-2.4902-10.588l.04101-1.3711-1.25-.58398c-35.516-16.539-71.983-33.198-103.28-30.621h-.013672c-7.9599.62384-14.718 2.8786-20.895 5.7539 1.3816-2.7037 2.6645-5.5186 4.3105-7.9551 2.4999-3.7004 5.5924-7.0704 8.6953-10.514l.001953-.001954zm86.918 5.8887c5.3483 3.7457 10.657 7.5329 15.576 11.717l-2.2168.38281c.017.62219-.51944 2.9113-.50977 5.8477-4.5047-2.7181-8.5347-6.5913-11.924-15.51l-.92579-2.4375zm19.584 15.562c4.5722 4.1193 9.1736 8.2071 13.32 12.764l.64453.71094c-.26968.04492-.73265.10934-.8789.13476-.66092-.34063-8.3567-4.7754-13.086-13.609zm-126.55 91.381v.00195c1.1243 2.6236 2.3518 5.1928 3.6719 7.7051 12.878 8.695 29.883 14.304 51.605 14.021 19.582.0495 38.976 1.7818 54.279 4.0273 24.145 3.5431 42.918 9.4863 57.826 16.613.00053.00025.00143-.00026.00195 0 .02062-.01637.03994-.0344.06055-.05079 1.1056-.87889 2.1937-1.7788 3.2637-2.6992.04239-.03648.08658-.07089.12891-.10743-15.605-7.7268-35.271-14.148-60.682-17.877-15.5-2.2742-35.052-4.0263-54.873-4.0762h-.035156c-24.611.32539-42.75-6.832-55.248-17.559zm17.35 27.873c.000596.0007.001356.00126.001953.00196.001981.00054.003877.00141.005859.00195-.001196-.0014-.00271-.00251-.003906-.00391zm.007812.00391c1.6187 1.8897 3.302 3.7222 5.0449 5.4961 4.2806.83128 8.6296 1.4735 13.123 1.5879 41.099 2.188 69 2.4798 102.98 20.094.007.003.01304.00998.01954.01367 1.1474.63571 2.2492 1.5719 3.3711 2.3867.74645-.3132 1.489-.6348 2.2266-.96484s1.4701-.66852 2.1992-1.0137c-1.9356-1.3905-3.8225-2.982-5.8223-4.0879l-.05274-.02735c-34.825-18.055-63.708-18.383-104.77-20.57h-.052734c-6.3455-.16151-12.397-1.3165-18.266-2.9141zm109.29 6.0957-1.0879 4.0156c9.8819 3.6845 18.163 9.0092 25.748 14.973 1.1688-.62904 2.3242-1.281 3.4668-1.9512.01484-.00871.03008-.01668.04492-.02539-3.4839-2.8047-6.916-5.6588-10.85-8.0547 5.4797 1.5986 10.146 3.6005 14.887 5.5664.00056.00023.0014-.00023.00195 0 .05321-.03445.10506-.07093.15821-.10547.71176-.46267 1.4194-.93295 2.1191-1.4121.02013-.01376.04042-.02724.06054-.04101.04548-.03119.08934-.06445.13477-.09571.72158-.49642 1.4372-.99894 2.1465-1.5117.00381-.00274.00792-.00506.01172-.00781-10.617-4.6848-22.378-8.818-36.842-11.35z" opacity=".3" transform="scale(.75)"/><path d="m64.6 15.123c34.143 13.879 63.858 32.269 86.93 57.615l5.5391-.36328s-31.73-38.496-92.469-57.252zm-35.168 22.414.001953.001953c-2.2317 2.4784-4.4671 4.9565-6.5566 7.5527-2.1669 2.9042-4.1895 5.923-6.0625 9.041-1.5785 2.8503-3.0182 5.7928-4.4492 8.7363 7.1665-4.339 15.702-7.3502 25.863-8.1445 30.416-2.5097 66.733 13.901 102.24 30.436-.13187 4.4097.05013 8.3284 2.9473 11.949 2.8961 3.6199 14.021 7.5674 17.576 9.6074 3.5549 2.0405 14.943 9.2854 21.922 18.369 1.5135-2.831 14.152-11.057 14.152-11.057s-3.0262.06039-10.07-2.5723c-7.045-2.6326-15.406-10.596-15.604-11.057-.19735-.46113-.32988-1.1824 1.3164-1.5117 1.25-1.0524-1.5772-4.4766-2.8281-5.7266-1.25-1.2508-9.612-15.467-9.8086-15.797-.19732-.32936-.26743-.65947-.85938-1.0547-1.8437-.5929-9.9356.85938-9.9356.85938s-12.452-6.1219-16.744-19.309c.06262 2.3097-2.1354 4.8306 0 10.137-6.4928-2.7467-12.072-7.4293-16.471-19.006-2.6181 6.5844 0 10.775 0 10.775s-15.292-4.2763-17.738-18.377c-2.6848 6.3296 0 10.139 0 10.139s-24.929-13.005-66.348-13.193c-.93885-.086121-1.6558-.61004-2.5449-.79883zm131.57 50.986c1.1249.22724 3.4586 5.2331 5.2852 7.5.0884.51736.23584.83304-.97461.58398-.10187-.53185-.28125-.69141-.28125-.69141s-2.9187-1.7356-3.8145-2.9688c-.8965-1.2331-1.0542-3.391-.61718-4.209.1064-.18457.24165-.24734.40234-.21484zm-149.03 68.365c4.7144 9.8404 10.869 18.856 18.188 26.783 5.0159 1.1299 10.196 1.8254 15.521 1.9609 41.099 2.1892 69.494 2.5002 103.91 20.344 1.5868.87741 3.095 2.1631 4.6406 3.2676 3.1097-1.388 6.141-2.9185 9.0879-4.582-7.901-6.3255-16.542-11.993-26.93-15.865 13.782 2.4119 25.063 6.2718 35.256 10.654 2.6138-1.8048 5.149-3.7171 7.5898-5.7383-15.261-7.4324-34.477-13.619-59.273-17.258-15.402-2.2598-34.88-3.997-54.584-4.0469-23.023.30443-40.655-5.9221-53.41-15.52z" fill="#fff" transform="scale(.75)"/></svg>